<svg width="181" height="150" viewBox="0 0 181 150" fill="none" xmlns="http://www.w3.org/2000/svg">
<path d="M149.917 67.786C148.142 65.6706 144.989 65.3947 142.873 67.1697L108.401 96.0951C106.286 97.8701 106.01 101.024 107.785 103.139C109.56 105.255 112.714 105.531 114.829 103.756L145.471 78.0441L171.182 108.686C172.957 110.801 176.111 111.077 178.227 109.302C180.342 107.527 180.618 104.373 178.843 102.258L149.917 67.786ZM150.981 72.4319L151.068 71.4357L141.106 70.5641L141.019 71.5603L150.981 72.4319Z" fill="#D9D9D9"/>
<path fill-rule="evenodd" clip-rule="evenodd" d="M139.932 78C138.364 112.506 109.893 140 75 140C39.1015 140 10 110.899 10 75C10 39.1015 39.1015 10 75 10C93.9271 10 110.965 18.0897 122.844 31H135.744C122.114 12.2157 99.9834 0 75 0C33.5786 0 0 33.5786 0 75C0 116.421 33.5786 150 75 150C115.417 150 148.366 118.031 149.941 78H139.932Z" fill="#D9D9D9"/>
</svg>
