<svg width="512" height="512" viewBox="0 0 512 512" fill="none" xmlns="http://www.w3.org/2000/svg">
<circle cx="256" cy="256" r="251" fill="#DEDEDE" stroke="#85C169" stroke-width="10"/>
<rect x="164" y="73" width="20" height="80" rx="10" transform="rotate(-35 164 73)" fill="#85C169"/>
<rect x="329.886" y="62" width="20" height="80" rx="10" transform="rotate(35 329.886 62)" fill="#85C169"/>
<path fill-rule="evenodd" clip-rule="evenodd" d="M256 194C300.236 194 341.618 181.777 376.951 160.525C345.527 130.465 302.92 112 256 112C209.08 112 166.473 130.465 135.049 160.525C170.382 181.777 211.764 194 256 194ZM81 287C81 246.422 94.8107 209.07 117.988 179.387C136.257 190.852 156.052 200.108 176.999 206.781C178.06 209.801 181.639 214.001 186.524 219.735C191.835 225.968 198.69 234.012 205.53 244.322C206.734 246.137 207.938 248.022 209.133 249.98C217.563 263.795 225.548 281.228 230.1 303.148C232.546 314.925 234 327.998 234 342.5C233.944 343.399 233.883 344.301 233.819 345.206C233.094 355.397 231.865 365.968 230.259 376.813C226.461 402.462 220.551 429.646 214.196 456.976C137.732 438.234 81 369.242 81 287ZM296.998 457.171C373.869 438.718 431 369.531 431 287C431 246.422 417.189 209.07 394.012 179.387C375.63 190.923 355.702 200.223 334.61 206.905C333.447 209.876 329.909 213.97 325.12 219.511C319.749 225.726 312.805 233.761 305.871 244.076C304.597 245.971 303.323 247.944 302.06 249.996C293.551 263.815 285.504 281.254 280.922 303.181C278.462 314.95 277 328.011 277 342.5C277.056 343.399 277.117 344.301 277.181 345.206C277.907 355.391 279.14 365.955 280.754 376.794C284.585 402.509 290.563 429.769 296.998 457.171Z" fill="#85C169"/>
</svg>
