<svg width="512" height="512" viewBox="0 0 512 512" fill="none" xmlns="http://www.w3.org/2000/svg">
<circle cx="256" cy="256" r="251" fill="#DEDEDE" stroke="#204CA2" stroke-width="10"/>
<rect x="115.872" y="156.825" width="114.481" height="17.0189" transform="rotate(-30 115.872 156.825)" fill="#204CA1"/>
<rect x="89" y="230.159" width="78.1672" height="17.0189" transform="rotate(-70 89 230.159)" fill="#204CA1"/>
<path fill-rule="evenodd" clip-rule="evenodd" d="M431 283C431 379.65 352.65 458 256 458C181.53 458 117.925 411.484 92.6532 345.923C100.072 351.302 107.734 356.22 115.539 360.667C115.586 360.798 115.633 360.929 115.681 361.06C123.237 381.819 138.759 395.228 144.397 393.175C144.397 393.175 127.773 381.952 119.658 362.963C127.256 367.105 134.97 370.803 142.71 374.048C151.382 391.008 164.802 401.195 169.803 399.175C169.803 399.175 156.456 390.826 147.311 375.922C157.309 379.877 167.318 383.073 177.142 385.487C185.534 396.321 195.057 402.118 198.98 400.372C198.98 400.372 190.814 395.653 182.644 386.761C195.557 389.57 208.08 391 219.754 391C270.148 391 311 349.847 311 299.083C311 248.984 271.212 248.991 221.731 249L219.754 249C207.305 249 191.134 249.941 173.841 252.124L82.4827 260.116C93.6929 174.28 167.106 108 256 108C352.65 108 431 186.35 431 283ZM174.832 171.152C172.557 178.988 172.065 179.803 167.51 187.357L167.51 187.357L167.508 187.36C166.253 189.441 164.69 192.034 162.696 195.426C161.128 195.996 159.716 196.516 158.424 196.992L158.423 196.993L158.407 196.999L158.404 197C146.778 201.286 144.877 201.987 125.943 203.21C126.401 202.298 126.833 201.434 127.242 200.614C134.172 186.748 134.773 185.547 146.276 175.436L146.279 175.434C164.077 165.442 164.077 165.442 174.832 171.152Z" fill="#204CA1"/>
<path d="M235 130.933C235 154.682 201.524 167 177.5 167C153.476 167 195.5 163.181 195.5 139.433C195.5 115.685 223 90.4329 240 58.933C274.189 3.93287 230 124.933 235 130.933Z" fill="#204CA1"/>
</svg>
