<svg width="512" height="512" viewBox="0 0 512 512" fill="none" xmlns="http://www.w3.org/2000/svg">
<circle cx="256" cy="256" r="251" fill="#DEDEDE" stroke="#E398E0" stroke-width="10"/>
<path fill-rule="evenodd" clip-rule="evenodd" d="M182.075 182.075L43.868 256L182.075 329.925L256 468.132L329.925 329.925L468.132 256L329.925 182.075L256 43.868L182.075 182.075ZM231.069 231.069L185 255.711L231.069 280.352L255.711 326.421L280.352 280.352L326.421 255.711L280.352 231.069L255.711 185L231.069 231.069Z" fill="#E398E0"/>
<path fill-rule="evenodd" clip-rule="evenodd" d="M256 161.909L121 121L161.909 256L121 391L256 350.091L391 391L350.091 256L391 121L256 161.909ZM231.069 231.069L185 255.711L231.069 280.352L255.711 326.421L280.352 280.352L326.421 255.711L280.352 231.069L255.711 185L231.069 231.069Z" fill="#E398E0"/>
</svg>
