<svg width="512" height="512" viewBox="0 0 512 512" fill="none" xmlns="http://www.w3.org/2000/svg">
<circle cx="256" cy="256" r="251" fill="#DEDEDE" stroke="#9093DD" stroke-width="10"/>
<path fill-rule="evenodd" clip-rule="evenodd" d="M203.231 176.538C255.042 176.538 298.797 211.032 312.783 258.308C299.879 261.525 290.086 263.673 290.086 263.673C290.086 263.673 299.868 263.899 314.077 263.058C316.288 271.93 317.462 281.213 317.462 290.769C317.462 299.045 316.582 307.115 314.91 314.891C300.97 318.401 290.086 320.789 290.086 320.789C290.086 320.789 299.665 321.009 313.634 320.2C300.653 369.025 256.143 405 203.231 405C140.143 405 89 353.857 89 290.769C89 227.681 140.143 176.538 203.231 176.538Z" fill="#9093DD"/>
<path fill-rule="evenodd" clip-rule="evenodd" d="M400.135 153.257C407.07 139.181 414.524 124.121 422.554 108C422.554 108 380.86 164.817 218.652 172.565C155.564 172.565 95.8538 218.757 95.8538 290.074C95.8538 361.391 149.281 405 212.369 405C228.783 395.529 241.678 388.894 252.236 383.461L252.236 383.461C266.257 376.246 276.157 371.151 284.702 364.355C295.951 355.408 304.853 343.51 317.723 319.94C301.568 321.053 290.086 320.789 290.086 320.789C290.086 320.789 304.454 317.637 321.317 313.251C328.675 299.359 337.353 281.84 348.344 259.325C318.202 264.321 290.086 263.673 290.086 263.673C290.086 263.673 329.793 254.963 354.665 246.353C356.756 242.056 358.925 237.596 361.176 232.966C368.322 218.271 376.302 201.861 385.288 183.497C380.261 187.521 374.923 190.532 369.324 192.032C332.761 201.829 290.086 200.846 290.086 200.846C290.086 200.846 345.809 188.623 366.581 178.823C378.97 173.778 390.419 163.987 400.135 153.257Z" fill="#9093DD"/>
</svg>
