<svg width="512" height="512" viewBox="0 0 512 512" fill="none" xmlns="http://www.w3.org/2000/svg">
<circle cx="256" cy="256" r="251" fill="#DEDEDE" stroke="#41A9BF" stroke-width="10"/>
<path fill-rule="evenodd" clip-rule="evenodd" d="M249.611 131.882L151.923 76L151.475 188.541L249.611 245.2V131.882ZM48 256L145.239 199.341L243.376 256L145.24 312.659L48 256ZM151.475 323.459L151.923 436L249.611 380.118V266.8L151.475 323.459ZM268.317 256L366.453 312.659L463.692 256L366.453 199.341L268.317 256ZM360.217 188.542L359.769 76L262.081 131.882V245.2L360.217 188.542ZM262.081 380.118V266.8L360.217 323.459L359.769 436L262.081 380.118Z" fill="#41A9BF"/>
</svg>
