<svg width="512" height="512" viewBox="0 0 512 512" fill="none" xmlns="http://www.w3.org/2000/svg">
<circle cx="256" cy="256" r="251" fill="#DEDEDE" stroke="#E78239" stroke-width="10"/>
<path d="M290.5 237.283C290.5 324.938 283.144 336 256 336C228.856 336 207.5 321.151 207.5 233.496C232.834 182.751 266.783 233.496 256.649 74.7833C290.5 136.283 290.5 137.213 290.5 237.283Z" fill="#E78239"/>
<path fill-rule="evenodd" clip-rule="evenodd" d="M344 258.497C344 281.066 333.115 298 310.66 298C290.222 298 290.372 282.529 290.564 262.732V262.731V262.73V262.728C290.583 260.776 290.602 258.781 290.602 256.755C290.602 249.463 288.508 240.624 286.386 231.669C283.969 221.468 281.516 211.115 282.082 202.725C273.67 200.939 264.945 200 256 200C249.94 200 243.98 200.431 238.15 201.265C233.602 202.801 211.547 211.747 190 246.5C173.88 272.5 170 307 170 307C169.853 306.619 169.71 306.251 169.57 305.892C167.324 300.127 165.912 296.504 164.5 272.5C163.768 260.065 163.368 248.99 164.827 239.487C143.848 261.845 131 291.922 131 325C131 394.036 186.964 450 256 450C264.382 450 272.572 449.175 280.492 447.602C263.833 443.243 251.754 437.471 242.998 431.453C203.2 411.73 213 352.5 213 352.5C213 352.5 211.666 382.401 230.185 396.635C224.481 390.408 221 382.111 221 373C221 353.67 236.67 338 256 338C275.33 338 291 353.67 291 373C291 384.258 285.685 394.274 277.427 400.677C301.369 393.16 308 375.5 308 375.5C308 375.5 302.676 412.772 270.134 429.6C276.317 430.598 283.203 431.176 290.861 431.176C309.326 431.176 322.31 428.409 331.423 424.69C361.543 401.866 381 365.705 381 325C381 284.253 361.504 248.06 331.331 225.24C338.669 234.693 344 245.659 344 258.497Z" fill="#E78239"/>
</svg>
