<svg width="512" height="512" viewBox="0 0 512 512" fill="none" xmlns="http://www.w3.org/2000/svg">
<circle cx="256" cy="256" r="251" fill="#DEDEDE" stroke="#36A655" stroke-width="10"/>
<path fill-rule="evenodd" clip-rule="evenodd" d="M257.589 408C351.011 408 393.845 285.191 393.845 191.898C393.845 184.755 393.89 178.191 393.932 172.159L393.932 172.142C394.164 138.491 394.282 121.405 385.798 112.759C377.047 103.84 359.144 103.902 322.775 104.027C318.195 104.043 313.323 104.06 308.14 104.06C214.718 104.06 90 168.873 90 262.165C90 296.24 99.8944 324.879 117.008 347.506L172.745 301.177L182.433 244.525L195.846 281.975L226.316 256.649L233.746 213.203L244.032 241.923L317.671 180.714L256.551 254.245L286.685 265.037L241.101 272.833L217.012 301.814L254.232 315.144L197.928 324.773L152.17 379.824C180.848 398.296 217.44 408 257.589 408Z" fill="#36A655"/>
</svg>
