<svg width="512" height="512" viewBox="0 0 512 512" fill="none" xmlns="http://www.w3.org/2000/svg">
<circle cx="256" cy="256" r="251" fill="#DEDEDE" stroke="#EC7785" stroke-width="10"/>
<path fill-rule="evenodd" clip-rule="evenodd" d="M431 256C431 275.767 427.723 294.768 421.682 312.49C400.655 347.681 358.376 388.41 279.013 373.177C234.634 363.86 210.703 331.52 196.376 300.859C192.194 287.447 190.179 273.092 191.5 257.999C193.193 238.645 205.052 222.526 220.201 209.216C220.919 208.8 221.66 208.367 222.423 207.921L222.424 207.92C236.853 199.486 259.251 186.394 286 192.5C307.432 192.5 319.613 207.692 327.809 219.312C330.531 227.069 332.761 235.915 334.149 246C334.149 270.156 308.063 282.56 290.835 290.752C290.137 291.084 289.454 291.408 288.787 291.727C284.513 292.88 279.926 293.822 275 294.5C249.754 294.5 240.074 276.499 235.507 264.941C235.364 254.8 240.886 244.742 268.5 275C278.5 288 297 268.792 297 252.5C297 236.208 280.397 223.5 263 223.5C249.886 223.5 228.984 245.093 229.767 260.437C228.766 272.851 233.623 306 269.059 306C287.078 307.257 301.213 303.425 312.7 296.303C331.225 286.487 350 268.899 350 246C352.006 217.252 346.076 190.738 329.742 176.321C318.884 163.115 303.532 153 286 153C276.576 153 267.162 153.875 258.261 155.729C210.571 164.719 161.334 211.353 156.569 265.809C155.981 272.53 155.962 279.171 156.47 285.686C157.411 337.47 199.777 390.404 264.208 413.855C292.91 424.302 322.309 418.918 348.574 404.537C321.722 421.308 289.993 431 256 431C159.35 431 81 352.65 81 256C81 159.35 159.35 81 256 81C352.65 81 431 159.35 431 256Z" fill="#EC7785"/>
</svg>
