<svg width="185" height="155" viewBox="0 0 185 155" fill="none" xmlns="http://www.w3.org/2000/svg">
<path d="M60 37.3213L64.2428 34.6759L62.7748 32.3213H60V37.3213ZM110.4 118.155L106.157 120.8L107.625 123.155H110.4V118.155ZM183.536 121.69C185.488 119.738 185.488 116.572 183.536 114.619L151.716 82.7993C149.763 80.8467 146.597 80.8467 144.645 82.7993C142.692 84.7519 142.692 87.9177 144.645 89.8704L172.929 118.155L144.645 146.439C142.692 148.392 142.692 151.557 144.645 153.51C146.597 155.463 149.763 155.463 151.716 153.51L183.536 121.69ZM0 42.3213H60V32.3213H0L0 42.3213ZM55.7572 39.9667L106.157 120.8L114.643 115.509L64.2428 34.6759L55.7572 39.9667ZM110.4 123.155H180V113.155H110.4V123.155Z" fill="#D9D9D9"/>
<path d="M60 117.321L64.2353 119.979L62.7654 122.321H60V117.321ZM110.4 37L106.165 34.3425L107.635 32H110.4V37ZM183.536 33.4645C185.488 35.4171 185.488 38.5829 183.536 40.5355L151.716 72.3553C149.763 74.308 146.597 74.308 144.645 72.3553C142.692 70.4027 142.692 67.2369 144.645 65.2843L172.929 37L144.645 8.71574C142.692 6.76311 142.692 3.59729 144.645 1.64467C146.597 -0.307953 149.763 -0.307953 151.716 1.64467L183.536 33.4645ZM0 112.321H60V122.321H0L0 112.321ZM55.7647 114.664L106.165 34.3425L114.635 39.6576L64.2353 119.979L55.7647 114.664ZM110.4 32H180V42H110.4V32Z" fill="#D9D9D9"/>
</svg>
